<?xml version="1.0" standalone="no"?>
<!DOCTYPE svg PUBLIC "-//W3C//DTD SVG 20010904//EN"
 "http://www.w3.org/TR/2001/REC-SVG-20010904/DTD/svg10.dtd">
<svg version="1.0" xmlns="http://www.w3.org/2000/svg"
 width="2872.000000pt" height="512.000000pt" viewBox="0 0 2872.000000 512.000000"
 preserveAspectRatio="xMidYMid meet">
<metadata>
Created by potrace 1.16, written by Peter Selinger 2001-2019
</metadata>
<g transform="translate(0.000000,512.000000) scale(0.100000,-0.100000)"
fill="#000000" stroke="none">
<path d="M0 2560 l0 -2560 4883 0 4882 0 -32 21 c-60 38 -73 85 -73 262 0 172
-8 208 -58 260 -53 56 -73 61 -259 67 -187 5 -199 9 -247 74 l-21 27 0 1849 0
1849 21 27 c48 65 60 69 247 74 186 6 206 11 259 67 50 52 58 88 58 260 0 177
13 224 73 262 l32 21 -4882 0 -4883 0 0 -2560z m1441 1445 c319 -55 591 -241
723 -494 68 -131 116 -340 86 -376 -10 -13 -50 -15 -255 -15 -270 0 -266 -1
-279 72 -13 70 -73 173 -136 231 -103 96 -222 137 -395 137 -291 0 -466 -133
-467 -356 0 -128 56 -205 196 -269 90 -41 176 -63 456 -119 534 -106 741 -215
870 -457 55 -103 73 -195 73 -364 0 -135 -3 -159 -27 -240 -101 -336 -381
-562 -792 -641 -120 -23 -374 -23 -504 0 -455 82 -779 373 -865 779 -18 83
-19 149 -3 165 14 14 209 16 396 5 128 -7 119 0 142 -103 40 -173 176 -315
364 -377 73 -24 96 -27 231 -27 138 0 156 2 229 27 92 32 173 83 211 133 95
125 97 298 4 399 -84 91 -203 133 -628 220 -390 80 -557 150 -702 295 -65 65
-94 103 -122 160 -59 120 -71 183 -72 360 0 180 17 259 86 391 134 258 419
435 767 478 98 12 304 5 413 -14z m4651 -22 c16 -15 18 -35 18 -214 0 -166 -2
-200 -16 -213 -13 -14 -51 -16 -258 -16 l-243 0 -27 -26 c-25 -26 -26 -29 -26
-160 0 -122 2 -134 19 -144 12 -6 118 -10 275 -10 242 0 256 -1 266 -19 6 -12
10 -97 10 -207 0 -160 -2 -190 -17 -206 -15 -17 -37 -18 -273 -18 -186 0 -259
-3 -268 -12 -9 -9 -12 -200 -12 -799 0 -703 -2 -789 -16 -803 -13 -14 -49 -16
-243 -16 -163 0 -230 3 -239 12 -9 9 -12 200 -12 799 0 703 -2 789 -16 803
-13 13 -44 16 -183 16 -116 0 -171 4 -179 12 -17 17 -17 409 0 426 8 8 61 12
173 12 219 0 205 -13 205 193 0 108 5 180 15 216 45 170 179 314 340 364 76
24 79 24 394 26 261 1 296 -1 313 -16z m-2294 -749 c163 -33 292 -102 402
-213 81 -82 124 -153 161 -266 23 -68 23 -82 29 -587 5 -504 5 -517 26 -545
30 -40 61 -53 131 -53 92 0 93 -3 93 -225 0 -147 -3 -185 -16 -203 -15 -22
-19 -22 -228 -22 l-214 0 -53 28 c-80 41 -113 100 -118 206 -3 88 -17 116 -57
116 -16 0 -35 -18 -67 -63 -96 -134 -244 -246 -382 -290 -58 -18 -92 -21 -200
-20 -138 1 -226 15 -338 56 -189 69 -327 204 -379 371 -30 93 -31 286 -4 386
67 246 256 405 561 472 75 17 140 21 395 25 172 3 313 9 324 15 16 9 18 20 14
96 -6 114 -33 176 -105 242 -76 70 -157 94 -291 88 -67 -3 -114 -12 -154 -27
-80 -31 -155 -101 -189 -177 -16 -34 -35 -64 -44 -68 -9 -3 -111 -6 -226 -6
-196 0 -210 1 -229 20 -25 25 -25 28 1 120 83 302 347 495 737 540 104 12 325
4 420 -16z m3512 16 c369 -39 660 -239 806 -555 18 -39 42 -106 53 -148 44
-169 52 -437 14 -479 -15 -17 -55 -18 -743 -18 -655 0 -729 -2 -741 -16 -11
-13 -10 -29 3 -96 56 -268 242 -428 500 -428 208 0 363 87 439 247 18 38 37
71 43 75 6 4 108 8 226 8 253 0 267 -4 256 -72 -11 -67 -65 -193 -116 -272
-212 -325 -614 -465 -1080 -376 -472 90 -764 424 -811 926 -27 289 39 581 177
790 141 213 382 366 634 403 41 6 86 13 100 15 50 7 147 5 240 -4z"/>
<path d="M3333 2030 c-123 -25 -220 -105 -243 -201 -15 -60 -8 -144 14 -187
78 -151 328 -199 524 -101 70 35 159 124 196 197 48 94 73 261 44 290 -14 14
-465 15 -535 2z"/>
<path d="M7066 2834 c-162 -39 -303 -174 -345 -332 -9 -30 -9 -48 -1 -62 10
-20 21 -20 474 -20 516 0 494 -3 483 66 -10 62 -64 162 -117 218 -115 122
-313 174 -494 130z"/>
<path d="M10348 5100 c62 -38 72 -79 72 -300 0 -184 -1 -199 -22 -240 -43 -83
-47 -84 -316 -90 -257 -5 -268 -8 -324 -67 -62 -65 -58 66 -58 -1843 0 -1892
-3 -1778 53 -1838 62 -67 60 -67 323 -72 l241 -5 37 -29 c61 -46 66 -69 66
-293 0 -225 -10 -265 -72 -303 l-33 -20 8635 0 c8621 0 8635 0 8602 20 -67 41
-72 60 -72 301 0 208 1 217 23 249 50 74 52 74 315 80 195 4 242 8 267 22 37
20 67 52 91 98 18 34 19 96 19 1790 l0 1755 -22 40 c-27 50 -58 80 -105 100
-30 12 -81 15 -250 15 -192 0 -215 2 -252 20 -79 39 -81 46 -84 300 -2 211 -1
227 18 258 11 18 34 41 52 52 33 20 19 20 -8602 20 l-8635 0 33 -20z m10081
-1686 c305 -106 558 -197 562 -201 4 -4 -19 -106 -51 -226 -33 -120 -62 -233
-66 -253 -3 -19 -9 -36 -13 -38 -4 -3 -65 13 -135 36 -70 22 -129 38 -131 36
-3 -2 -22 -69 -43 -148 l-38 -144 -135 -48 c-74 -26 -140 -48 -147 -48 -9 0
-10 8 -6 28 4 15 33 124 64 242 37 143 53 217 46 222 -18 10 -449 158 -452
155 -2 -2 -53 -192 -114 -423 -61 -230 -115 -433 -120 -451 l-8 -32 91 33 c51
18 255 91 453 161 l362 127 32 127 c18 69 36 131 39 138 4 8 37 1 116 -24 61
-19 111 -36 112 -37 1 -1 -76 -296 -171 -656 l-173 -655 -282 -3 c-270 -2
-282 -2 -277 16 25 78 144 537 141 541 -3 2 -181 -29 -396 -71 -214 -41 -391
-72 -393 -69 -1 3 27 112 63 241 51 185 70 239 88 253 47 38 18 127 -41 127
-14 0 -38 -11 -55 -25 -28 -24 -36 -26 -124 -23 l-94 3 111 424 112 425 238
223 c200 189 241 223 259 217 12 -4 271 -94 576 -200z m5295 116 c187 -65 246
-89 246 -102 0 -14 -268 -1031 -273 -1034 -1 -1 -60 -20 -130 -44 -95 -31
-132 -39 -140 -31 -37 37 -125 -16 -112 -67 4 -15 13 -34 21 -43 12 -13 9 -30
-16 -123 -16 -60 -30 -110 -32 -111 -6 -6 -261 -46 -265 -42 -3 4 200 790 373
1442 25 94 50 187 55 208 6 21 14 37 19 35 5 -2 119 -41 254 -88z m-10474 58
c0 -25 -164 -629 -174 -642 -8 -9 -164 -30 -501 -66 -269 -28 -491 -53 -492
-54 -1 -1 -32 -114 -68 -251 -37 -138 -71 -254 -76 -259 -5 -5 -61 -17 -125
-26 -113 -16 -118 -16 -136 2 -26 26 -83 24 -102 -4 -20 -28 -20 -67 -1 -95
14 -20 12 -35 -20 -175 -20 -84 -38 -160 -41 -169 -3 -12 -34 -20 -130 -34
-69 -9 -127 -15 -130 -12 -6 5 364 1409 374 1418 6 6 1582 376 1610 378 6 1
12 -5 12 -11z m2000 -3 c0 -28 -161 -630 -170 -635 -5 -3 -310 -36 -677 -74
-367 -37 -686 -70 -709 -73 l-40 -5 -31 -94 -31 -93 319 -197 c256 -158 319
-201 319 -218 0 -12 7 -32 16 -44 14 -21 13 -29 -18 -122 -18 -55 -36 -100
-40 -100 -16 0 -928 572 -928 582 0 10 180 691 183 694 5 5 1765 392 1785 393
13 1 22 -5 22 -14z m1880 5 c0 -20 -170 -644 -177 -650 -5 -4 -228 -31 -498
-59 -269 -29 -492 -54 -493 -56 -2 -2 -34 -116 -71 -254 -38 -139 -71 -254
-75 -258 -3 -4 -59 -14 -124 -24 -115 -17 -117 -17 -139 3 -62 57 -147 -14
-104 -87 l19 -33 -39 -168 c-22 -93 -41 -169 -42 -170 -9 -6 -249 -35 -254
-31 -4 5 362 1417 370 1422 4 3 1602 374 1615 374 6 1 12 -3 12 -9z m5974 -17
c-4 -16 -42 -161 -84 -323 -71 -272 -79 -296 -101 -302 -13 -5 -298 -35 -634
-69 -335 -33 -619 -64 -630 -68 -16 -7 -31 -51 -80 -235 -34 -129 -65 -226
-71 -226 -7 0 -22 -11 -35 -25 -23 -23 -30 -25 -130 -25 l-106 0 125 473 c68
259 125 473 126 474 5 5 1582 352 1604 352 20 1 22 -2 16 -26z m-12277 -239
c247 -86 452 -160 457 -165 8 -7 -177 -732 -204 -804 -6 -16 -89 -48 -409
-160 -220 -77 -400 -143 -398 -147 1 -3 129 -162 285 -353 156 -191 286 -353
289 -361 4 -12 -45 -14 -329 -14 l-333 0 -274 259 c-262 248 -275 259 -300
248 -14 -6 -31 -15 -37 -21 -6 -6 -62 -160 -124 -343 l-112 -332 -42 -16
c-239 -88 -1022 -353 -1028 -347 -4 4 68 155 161 336 l167 329 301 116 301
116 53 138 c29 77 58 145 64 152 5 7 288 112 627 234 l617 222 32 -17 c30 -15
35 -15 65 0 44 20 53 55 26 100 l-21 35 35 147 c19 81 31 150 27 154 -4 4
-108 41 -230 84 l-222 77 -152 -3 -152 -3 -94 -274 c-51 -151 -92 -278 -91
-282 2 -3 198 61 436 144 237 83 434 148 437 145 3 -3 -4 -46 -16 -95 -19 -76
-26 -92 -50 -106 -16 -8 -31 -27 -35 -41 -5 -20 -20 -30 -77 -51 -40 -14 -326
-117 -636 -228 l-563 -202 -54 -144 c-29 -79 -57 -147 -61 -152 -10 -9 -527
-208 -531 -204 -2 2 223 449 499 994 l503 991 373 0 373 0 447 -156z m9824 -3
c303 -106 454 -164 453 -173 -3 -38 -209 -804 -217 -810 -6 -3 -142 -52 -304
-108 -161 -57 -293 -105 -293 -107 0 -3 90 -180 200 -393 110 -214 200 -394
200 -400 0 -7 -94 -10 -283 -10 l-282 0 -214 296 c-234 323 -215 305 -292 276
-28 -11 -19 19 -127 -396 l-47 -179 -132 -45 -131 -46 -102 -167 -102 -167
-105 -37 c-57 -20 -107 -34 -110 -31 -7 7 207 837 219 851 5 6 81 30 170 55
l162 45 76 268 c72 258 76 268 107 287 18 11 35 30 39 44 7 28 -36 11 611 236
l382 133 6 39 c4 22 3 43 -1 47 -5 5 -108 43 -229 85 -218 75 -221 76 -320 76
l-100 0 -60 -232 -60 -233 -118 -43 c-112 -42 -120 -43 -149 -29 -37 18 -62
12 -88 -21 -24 -30 -24 -35 -4 -77 15 -32 13 -40 -51 -276 -37 -134 -71 -251
-75 -259 -8 -15 -269 -94 -279 -85 -2 2 92 370 209 817 117 447 220 839 228
871 l14 57 373 0 372 0 454 -159z m4406 137 c-4 -13 -57 -215 -118 -450 l-113
-428 -141 0 -141 0 -61 -202 -60 -202 -409 -84 c-225 -47 -410 -85 -411 -86
-1 -1 -40 -148 -87 -326 -48 -179 -90 -334 -95 -345 -6 -14 -44 -32 -137 -64
l-129 -45 -101 -165 -100 -166 -107 -39 c-59 -22 -109 -37 -112 -34 -5 4 263
1037 271 1047 2 2 65 14 141 27 76 13 147 26 159 29 17 4 26 25 53 128 26 99
36 125 54 132 18 8 32 28 54 73 0 2 176 64 389 138 214 74 391 138 395 142 3
4 59 210 124 457 65 248 120 458 123 468 4 16 26 17 284 17 l280 0 -5 -22z
m-3168 -815 c-21 -82 -79 -301 -128 -488 -49 -187 -89 -341 -87 -342 1 -1 223
25 494 59 271 33 495 58 498 55 4 -3 -123 -494 -152 -589 -5 -17 -50 -18 -770
-18 -724 0 -765 1 -760 18 3 9 55 208 116 442 61 234 113 433 116 443 5 15 19
17 116 17 104 0 112 -1 141 -26 35 -29 71 -27 100 8 21 25 22 52 1 86 -14 26
-12 38 41 237 32 116 59 212 62 215 3 4 153 22 235 29 14 1 11 -19 -23 -146z
m-7513 -177 c269 -156 489 -288 489 -292 0 -5 -49 -199 -110 -431 l-109 -423
-847 0 -847 0 34 133 c84 316 72 286 108 292 33 6 1111 135 1126 135 5 0 25
51 44 114 32 101 39 115 65 126 41 17 59 62 37 95 -24 37 -52 49 -85 35 -26
-10 -45 0 -322 171 -162 100 -298 186 -303 190 -5 5 -2 35 9 74 l17 65 103 0
102 0 489 -284z m-1690 77 c-4 -16 -30 -118 -60 -228 -48 -181 -55 -201 -77
-208 -13 -4 -170 -27 -348 -52 -196 -27 -328 -50 -332 -57 -9 -15 -51 -179
-47 -184 2 -2 220 24 483 56 264 33 486 60 493 60 6 0 12 -7 12 -16 0 -9 -35
-146 -77 -305 l-77 -289 -763 0 c-420 0 -763 3 -763 7 0 10 102 408 106 412 2
2 71 14 154 26 83 13 152 24 154 26 3 4 86 353 86 363 0 3 6 6 14 6 8 0 26 14
39 30 24 28 35 31 160 51 l135 21 28 109 c15 60 30 113 33 118 5 8 537 75 629
80 21 1 23 -2 18 -26z m3877 20 c5 -9 -108 -441 -117 -451 -4 -3 -160 -27
-348 -54 -188 -26 -345 -51 -349 -55 -9 -11 -53 -182 -48 -187 2 -3 224 23
492 56 269 33 491 57 495 54 3 -4 -30 -140 -74 -304 l-79 -297 -763 -3 c-606
-2 -762 0 -762 10 0 18 99 401 105 407 3 2 71 14 151 26 80 12 149 26 153 31
5 5 23 72 41 149 47 206 49 215 65 215 7 0 24 14 37 30 22 29 32 32 149 50 68
11 129 20 134 20 6 0 24 52 40 116 16 64 34 118 40 120 9 4 571 70 617 73 9 0
19 -2 21 -6z m8247 -35 c0 -7 -72 -281 -158 -608 l-159 -595 -276 -3 c-198 -2
-277 1 -277 9 0 17 182 712 191 730 5 11 57 26 167 49 l160 33 59 198 58 199
118 0 c87 0 117 -3 117 -12z m-7460 -288 l27 -29 -72 -263 c-44 -163 -68 -264
-61 -266 6 -1 75 11 154 26 124 26 142 27 138 13 -3 -9 -26 -99 -52 -201 -26
-102 -51 -190 -55 -196 -5 -6 -65 -30 -134 -54 l-125 -42 -103 -168 -102 -168
-104 -36 c-57 -20 -106 -34 -110 -31 -4 2 77 327 181 722 103 395 188 719 188
721 0 1 45 2 101 2 99 0 102 -1 129 -30z"/>
<path d="M28157 5100 c62 -37 67 -56 73 -250 5 -164 7 -179 31 -225 15 -30 42
-62 68 -80 43 -30 43 -30 217 -35 l174 -5 0 308 0 307 -297 0 -298 0 32 -20z"/>
<path d="M28550 610 c-91 -3 -177 -11 -192 -17 -14 -7 -42 -28 -62 -47 -53
-53 -66 -111 -66 -288 0 -158 -6 -183 -52 -224 -12 -12 -30 -24 -38 -27 -8 -3
119 -6 283 -6 l297 -1 0 310 c0 171 -1 309 -2 308 -2 -1 -77 -5 -168 -8z"/>
</g>
</svg>
