<?xml version="1.0" standalone="no"?>
<!DOCTYPE svg PUBLIC "-//W3C//DTD SVG 20010904//EN"
 "http://www.w3.org/TR/2001/REC-SVG-20010904/DTD/svg10.dtd">
<svg version="1.0" xmlns="http://www.w3.org/2000/svg"
 width="512.000000pt" height="512.000000pt" viewBox="0 0 512.000000 512.000000"
 preserveAspectRatio="xMidYMid meet">
<metadata>
Created by potrace 1.16, written by Peter Selinger 2001-2019
</metadata>
<g transform="translate(0.000000,512.000000) scale(0.100000,-0.100000)"
fill="#000000" stroke="none">
<path d="M0 2560 l0 -2560 2560 0 2560 0 0 2560 0 2560 -2560 0 -2560 0 0
-2560z m1447 1568 c22 -20 23 -28 23 -154 0 -185 9 -178 -202 -184 -148 -5
-166 -7 -194 -27 -68 -49 -64 27 -64 -1203 0 -1230 -4 -1154 64 -1203 28 -20
46 -22 194 -27 210 -6 202 1 202 -183 0 -184 8 -177 -214 -177 -220 0 -216 -3
-216 150 0 92 -3 113 -23 150 -36 69 -86 90 -212 90 -86 0 -107 3 -126 19
l-24 19 0 1162 0 1162 24 19 c19 16 40 19 124 19 120 0 173 20 209 78 20 32
23 53 26 152 5 165 -2 160 216 160 160 0 171 -1 193 -22z m2723 -38 c17 -17
20 -33 20 -123 0 -89 3 -110 23 -147 36 -69 86 -90 212 -90 86 0 107 -3 126
-19 l24 -19 0 -1132 0 -1132 -24 -19 c-19 -16 -40 -19 -126 -19 -126 0 -176
-21 -212 -90 -20 -37 -23 -58 -23 -146 0 -147 5 -144 -214 -144 -224 0 -216
-6 -216 171 0 180 -8 173 202 179 181 6 201 12 238 73 19 31 20 59 20 1127 0
1068 -1 1096 -20 1127 -37 61 -57 67 -238 73 -210 6 -202 -1 -202 178 0 178
-8 172 217 172 160 0 175 -2 193 -20z m-866 -696 c182 -63 332 -116 333 -117
3 -3 -157 -600 -162 -605 -2 -3 -141 -53 -307 -111 -166 -58 -301 -110 -299
-116 1 -5 98 -127 214 -269 117 -143 214 -264 215 -268 2 -4 -105 -8 -238 -8
l-242 0 -204 195 c-115 109 -213 195 -223 195 -42 0 -59 -35 -141 -282 -56
-169 -86 -248 -98 -253 -9 -4 -170 -60 -357 -125 -187 -65 -359 -125 -382
-134 l-43 -15 114 227 c63 125 122 237 132 249 12 14 100 54 237 107 121 47
220 86 222 88 1 2 19 48 40 103 21 55 43 105 49 111 6 7 218 86 470 177 383
138 463 164 482 155 58 -27 112 29 80 85 -15 26 -14 36 10 138 14 61 23 113
20 116 -3 3 -85 33 -183 67 l-178 62 -112 -4 -111 -4 -76 -220 c-42 -122 -75
-222 -74 -224 2 -1 151 49 332 112 181 63 330 113 332 112 1 -2 -4 -29 -11
-61 -9 -40 -21 -64 -39 -78 -14 -11 -26 -26 -26 -32 0 -7 -214 -88 -476 -182
-452 -161 -477 -172 -490 -200 -8 -16 -28 -68 -46 -115 l-33 -85 -185 -71
c-102 -39 -187 -70 -189 -68 -3 3 573 1147 681 1352 l59 112 286 0 286 0 331
-116z"/>
</g>
</svg>
