<svg width="237" height="42" viewBox="0 0 237 42" fill="none" xmlns="http://www.w3.org/2000/svg">
<path d="M15.4412 20.0872C14.3854 19.6501 13.096 19.2858 11.5728 18.9935H11.5404C10.0606 18.7246 8.95047 18.4777 8.21058 18.2529C7.47068 18.0293 6.88873 17.7264 6.46409 17.3447C6.03944 16.9637 5.82776 16.4366 5.82776 15.7633C5.82776 14.7764 6.18703 14.0251 6.90492 13.5093C7.62345 12.9935 8.56984 12.7353 9.74474 12.7353C11.029 12.7353 12.0674 13.0716 12.8623 13.7448C13.5756 14.3494 14.0126 15.1174 14.1731 16.0476C14.2048 16.2331 14.357 16.3699 14.5395 16.3719L18.1516 16.3999C18.373 16.4019 18.5503 16.2057 18.5283 15.9782C18.4073 14.7337 18.0092 13.602 17.3347 12.5838C16.5838 11.4515 15.55 10.5707 14.2333 9.94211C12.9166 9.31422 11.4207 8.99994 9.74474 8.99994C8.1562 8.99994 6.72561 9.30288 5.45231 9.90875C4.17967 10.5146 3.18925 11.3554 2.48173 12.4323C1.7742 13.5093 1.42075 14.7204 1.42075 16.0662C1.42075 17.5469 1.736 18.736 2.36715 19.6328C2.99829 20.5302 3.82493 21.2088 4.84771 21.6686C5.87049 22.1283 7.09976 22.4926 8.53618 22.7622L8.69931 22.7956C10.2218 23.0872 11.3598 23.3454 12.1107 23.5696C12.8616 23.7945 13.4539 24.1081 13.8896 24.5118C14.3246 24.9155 14.5421 25.4653 14.5421 26.1606C14.5421 27.1481 14.1505 27.9215 13.3672 28.482C12.5839 29.0432 11.5715 29.3234 10.3312 29.3234C8.85078 29.3234 7.65452 28.9364 6.74049 28.1624C5.90868 27.4584 5.4193 26.5543 5.27236 25.4506C5.24711 25.2598 5.09304 25.115 4.90661 25.1123L1.29906 25.0563C1.07961 25.0529 0.902245 25.2438 0.919075 25.4693C1.02135 26.8265 1.43305 28.0496 2.15418 29.1386C2.94845 30.339 4.04179 31.2812 5.43483 31.9651C6.82724 32.6497 8.42678 32.9914 10.2335 32.9914C11.9088 32.9914 13.4106 32.6777 14.7382 32.0492C16.0653 31.4213 17.1049 30.5518 17.8558 29.4415C18.6067 28.3312 18.9821 27.0807 18.9821 25.6895C18.9821 24.2088 18.6552 23.0144 18.0027 22.1056C17.3502 21.1975 16.4957 20.5242 15.4406 20.0865L15.4412 20.0872Z" fill="#12FF80"/>
<path d="M37.6234 29.1558H37.0596C36.7333 29.1558 36.477 29.0664 36.2925 28.8862C36.1074 28.7074 36.0148 28.4151 36.0148 28.0114V21.5844C36.0148 19.5432 35.3836 17.9898 34.122 16.9242C32.8597 15.8593 31.3734 15.3161 29.045 15.3161C26.8467 15.3161 25.1293 15.8085 23.7803 16.7727C22.5504 17.6522 21.8092 18.8566 21.5554 20.388C21.5159 20.6262 21.6907 20.8444 21.9244 20.8444H25.242C25.4083 20.8444 25.5572 20.7316 25.6012 20.5661C25.7527 19.9996 26.0867 19.5372 26.6033 19.1789C27.2014 18.7638 27.9122 18.5563 28.8482 18.5563C30.6135 18.5563 31.8687 19.678 31.8687 21.3488V21.8713C31.8687 22.0848 31.701 22.2576 31.4938 22.2576H28.489C26.0518 22.2576 24.2017 22.7514 22.9401 23.7383C21.6778 24.7258 21.0466 26.1278 21.0466 27.944C21.0466 29.5148 21.6234 30.7485 22.7769 31.6453C23.6424 32.3179 24.6768 32.7063 25.7417 32.8764C26.5554 33.0066 27.3911 33.0539 28.2067 32.9191C29.0612 32.7784 29.7551 32.4154 30.4497 31.8976C31.0737 31.4332 31.5942 30.838 32.0693 30.112C32.3011 29.7016 32.9089 29.8664 32.9089 30.3408V30.9114C32.9083 31.9483 33.7233 32.789 34.7292 32.789H37.6234C37.8305 32.789 37.9982 32.6162 37.9982 32.4027V29.5415C37.9982 29.3279 37.8305 29.1551 37.6234 29.1551V29.1558ZM31.8693 25.69C31.8693 26.5201 31.7004 27.2434 31.3631 27.86C30.6562 29.1531 29.3913 29.8284 27.9679 29.8284C27.1406 29.8284 26.4771 29.6269 25.9767 29.2232C25.4756 28.8195 25.2258 28.281 25.2258 27.6077C25.2258 26.8457 25.5035 26.2565 26.0582 25.8415C26.613 25.4271 27.4014 25.2189 28.4249 25.2189H31.4945C31.7016 25.2189 31.8693 25.3918 31.8693 25.6053V25.69Z" fill="#12FF80"/>
<path d="M49.7171 9.24561H45.4001C43.1228 9.24561 41.2766 11.1486 41.2766 13.4961V15.3637C41.2766 15.5773 41.109 15.7501 40.9018 15.7501H38.4368C38.2297 15.7501 38.062 15.9229 38.062 16.1364V19.031C38.062 19.2445 38.2297 19.4174 38.4368 19.4174H40.9018C41.109 19.4174 41.2766 19.5902 41.2766 19.8037V32.4029C41.2766 32.6165 41.4443 32.7893 41.6514 32.7893H45.015C45.2221 32.7893 45.3898 32.6165 45.3898 32.4029V19.8037C45.3898 19.5902 45.5574 19.4174 45.7646 19.4174H49.6841C49.8913 19.4174 50.0589 19.2445 50.0589 19.031V16.1364C50.0589 15.9229 49.8913 15.7501 49.6841 15.7501H45.7646C45.5574 15.7501 45.3898 15.5773 45.3898 15.3637V13.6856C45.3898 13.2585 45.7257 12.9129 46.1394 12.9129H49.7165C49.9236 12.9129 50.0913 12.7401 50.0913 12.5265V9.63195C50.0913 9.41843 49.9236 9.24561 49.7165 9.24561H49.7171Z" fill="#12FF80"/>
<path d="M66.1955 19.23C65.4666 17.9742 64.4704 17.0094 63.2087 16.3361C61.9464 15.6635 60.488 15.3172 58.8347 15.3172C57.1815 15.3172 55.7547 15.6915 54.4931 16.4202C53.2308 17.1495 52.2514 18.1811 51.5555 19.5156C50.859 20.8508 50.5107 22.4149 50.5107 24.2098C50.5107 26.0047 50.87 27.5021 51.5879 28.8366C52.3064 30.1711 53.3344 31.1974 54.6724 31.9154C56.0104 32.6333 57.5828 32.9923 59.3895 32.9923C60.7819 32.9923 62.028 32.7287 63.1272 32.2016C64.2257 31.6751 65.1125 30.9512 65.787 30.0317C66.3644 29.2443 66.7587 28.3822 66.9697 27.446C67.0247 27.2031 66.8467 26.9696 66.6046 26.9696H63.2256C63.0637 26.9696 62.922 27.0777 62.8702 27.2358C62.632 27.9612 62.2118 28.5343 61.6092 28.9547C60.934 29.4258 60.0964 29.6613 59.0956 29.6613C58.2683 29.6613 57.5453 29.4818 56.9251 29.1229C56.305 28.7645 55.8156 28.2594 55.4563 27.6088C55.3146 27.3519 55.1987 27.0804 55.1061 26.8008C55.0071 26.5005 54.9359 26.1909 54.8867 25.8773C54.8698 25.7679 54.8543 25.6571 54.8414 25.5463C54.8161 25.3181 54.9915 25.1186 55.2142 25.1186H66.8668C67.0558 25.1186 67.2176 24.9745 67.239 24.7803C67.2552 24.6382 67.2662 24.4934 67.272 24.3446C67.283 24.0757 67.2882 23.8288 67.2882 23.6046C67.2882 21.9451 66.9237 20.4871 66.1949 19.2307L66.1955 19.23ZM62.6941 22.1907H55.3961C55.1566 22.1907 54.976 21.9618 55.0291 21.7209C55.1456 21.1931 55.3476 20.7167 55.635 20.2896C56.0046 19.7405 56.4836 19.3194 57.0714 19.0278C57.6592 18.7363 58.3007 18.5901 58.9972 18.5901C60.1287 18.5901 61.0648 18.9044 61.8047 19.5323C62.4397 20.0714 62.8579 20.8001 63.0605 21.7189C63.1136 21.9605 62.9343 22.1907 62.6941 22.1907Z" fill="#12FF80"/>
<path d="M74.4325 6.32257V35.6774C74.4325 36.3803 74.9816 36.9503 75.6586 36.9503H77.5469C78.5132 36.9503 79.2979 37.7635 79.2979 38.7682V40.7271C79.2979 41.4299 79.847 42 80.524 42H84.205C84.882 42 85.4312 41.4299 85.4312 40.7271V37.9983C85.4312 37.2955 84.882 36.7254 84.205 36.7254H81.2643C80.2979 36.7254 79.5133 35.9122 79.5133 34.9076V7.09105C79.5133 6.08783 80.2966 5.27323 81.2643 5.27323H84.2037C84.8807 5.27323 85.4298 4.70315 85.4298 4.00033V1.2729C85.4298 0.570079 84.8807 0 84.2037 0H80.5227C79.8457 0 79.2966 0.570079 79.2966 1.2729V3.23184C79.2966 4.23507 78.5133 5.04967 77.5456 5.04967H75.6573C74.9803 5.04967 74.4312 5.61975 74.4312 6.32257H74.4325Z" fill="#12FF80"/>
<path d="M108.945 16C109.003 16.0286 109.003 16.0571 109.003 16.0857L107.26 22.6571C107.26 22.6857 107.26 22.7143 107.231 22.7143L100.545 25.0571L105.374 30.9714C105.403 31 105.403 31.0286 105.374 31.0571C105.374 31.0571 105.345 31.0857 105.317 31.0857H100.031C100.003 31.0857 99.974 31.0857 99.974 31.0571L95.4883 26.8L94.8597 27.0286L93.0026 32.5714C93.0026 32.6 92.974 32.6286 92.9454 32.6286L84.3169 35.6286C84.2883 35.6286 84.2597 35.6286 84.2597 35.6C84.2312 35.5714 84.2312 35.5429 84.2312 35.5143L86.9454 30.2L91.8883 28.2857L92.8312 25.8571L103.06 22.1714C103.174 22.3143 103.374 22.4 103.574 22.4C103.917 22.4 104.203 22.1429 104.203 21.7714C104.203 21.5429 104.06 21.3429 103.888 21.2286L104.488 18.6857L100.574 17.3143L98.1454 17.3714L96.5169 22.1429L103.831 19.6L103.46 21.1429C103.174 21.2 102.917 21.4571 102.917 21.7714L92.4883 25.5143L91.574 27.9714L87.2312 29.6286L95.4312 13.4571C95.4597 13.4286 95.4883 13.4286 95.5169 13.4286H101.603L108.945 16ZM121.399 26.1143C121.428 26.1143 121.428 26.1429 121.457 26.1429C121.485 26.1714 121.485 26.2 121.485 26.2286L120.199 31.0286C120.199 31.0571 120.171 31.0857 120.142 31.0857H107.799C107.771 31.0857 107.771 31.0857 107.742 31.0571C107.742 31.0286 107.714 31.0286 107.742 31L108.599 27.6571L111.142 27.2857L111.857 24.2571C112.142 24.2286 112.371 24 112.428 23.7429L114.685 23.4L115.199 21.4571L120.371 20.8857C120.399 20.8857 120.428 20.8857 120.457 20.9143C120.457 20.9429 120.457 20.9714 120.457 20.9714L119.514 24.5429C119.514 24.5714 119.485 24.6 119.457 24.6L113.742 25.4L113.285 27.1143L121.399 26.1143ZM125.057 12.5143C125.085 12.5429 125.085 12.5714 125.085 12.6L123.685 17.8286C123.685 17.8571 123.657 17.8857 123.628 17.8857L115.485 18.7714L114.342 23.0286L112.342 23.3143C112.257 23.1143 112.028 22.9714 111.799 22.9714C111.457 22.9714 111.171 23.2571 111.171 23.6286C111.171 23.8286 111.285 24.0286 111.457 24.1429L110.799 26.9143L108.714 27.2286L111.771 15.6286C111.771 15.6 111.799 15.5714 111.828 15.5714L124.999 12.5143C125.028 12.4857 125.028 12.5143 125.057 12.5143ZM138.319 24.0571V24.0857V24.1143L136.519 31.0286C136.519 31.0286 136.519 31.0571 136.49 31.0571C136.49 31.0571 136.49 31.0857 136.462 31.0857C136.462 31.0857 136.462 31.0857 136.433 31.0857H122.776C122.747 31.0857 122.747 31.0857 122.719 31.0571C122.719 31.0286 122.69 31.0286 122.719 31L123.576 27.7143C123.576 27.6857 123.605 27.6571 123.633 27.6571L133.147 26.5143L133.176 26.4857L133.747 24.6286C134.09 24.6286 134.376 24.3429 134.376 24C134.376 23.6571 134.09 23.3714 133.719 23.3714C133.576 23.3714 133.462 23.4286 133.347 23.5143L128.376 20.4286L128.69 19.4L130.262 19.3714L138.29 24.0286C138.319 24.0571 138.319 24.0571 138.319 24.0571ZM141.49 12.5143C141.49 12.5429 141.49 12.5714 141.49 12.6L140.147 17.7429C140.147 17.7714 140.119 17.7714 140.09 17.8L128.376 19L127.862 20.6L133.119 23.8571C133.09 23.9143 133.09 23.9429 133.09 24C133.09 24.2 133.205 24.4 133.347 24.5143L132.805 26.1714L125.233 21.4571C125.205 21.4286 125.205 21.4 125.205 21.3714L126.69 15.7714C126.69 15.7429 126.719 15.7143 126.719 15.7143H126.747L141.405 12.4857C141.433 12.4857 141.462 12.5143 141.49 12.5143ZM153.208 26.1143C153.236 26.1143 153.236 26.1429 153.265 26.1429C153.293 26.1714 153.293 26.2 153.293 26.2286L152.008 31.0286C152.008 31.0571 151.979 31.0857 151.95 31.0857H139.608C139.579 31.0857 139.579 31.0857 139.55 31.0571C139.55 31.0286 139.522 31.0286 139.55 31L140.408 27.6571L142.95 27.2857L143.665 24.2571C143.95 24.2286 144.179 24 144.236 23.7429L146.493 23.4L147.008 21.4571L152.179 20.8857C152.208 20.8857 152.236 20.8857 152.265 20.9143C152.265 20.9429 152.265 20.9714 152.265 20.9714L151.322 24.5429C151.322 24.5714 151.293 24.6 151.265 24.6L145.55 25.4L145.093 27.1143L153.208 26.1143ZM156.865 12.5143C156.893 12.5429 156.893 12.5714 156.893 12.6L155.493 17.8286C155.493 17.8571 155.465 17.8857 155.436 17.8857L147.293 18.7714L146.15 23.0286L144.15 23.3143C144.065 23.1143 143.836 22.9714 143.608 22.9714C143.265 22.9714 142.979 23.2571 142.979 23.6286C142.979 23.8286 143.093 24.0286 143.265 24.1429L142.608 26.9143L140.522 27.2286L143.579 15.6286C143.579 15.6 143.608 15.5714 143.636 15.5714L156.808 12.5143C156.836 12.4857 156.836 12.5143 156.865 12.5143ZM158.927 23.7429L157.698 28.2286L160.241 27.7143L159.384 31.0286C159.355 31.0571 159.355 31.0857 159.327 31.0857L157.213 31.8286L155.555 34.5429L155.527 34.5714L153.898 35.1429H153.87C153.841 35.1429 153.841 35.1429 153.813 35.1143C153.813 35.0857 153.784 35.0857 153.813 35.0571L156.87 23.3714H158.555C158.613 23.5429 158.755 23.6857 158.927 23.7429ZM172.156 15.6286C172.184 15.6571 172.213 15.6857 172.213 15.7143L171.441 18.5714L171.127 19.8286L171.098 19.8857L168.898 19.2L168.241 21.6571L165.898 22.4857L166.955 18.4286L163.07 17.0857L161.07 24.6571L168.584 22L169.184 19.7429L170.984 20.3143L168.155 31.0286C168.155 31.0571 168.127 31.0857 168.098 31.0857H163.727C163.698 31.0857 163.67 31.0857 163.67 31.0571C163.641 31.0286 163.641 31.0286 163.641 31L164.87 26.4L158.298 27.6571L159.384 23.7429C159.613 23.6571 159.784 23.4286 159.784 23.1429C159.784 22.8 159.498 22.5143 159.155 22.5143C158.898 22.5143 158.641 22.6857 158.555 22.9429H156.984L158.813 16C158.813 16 158.813 15.9714 158.841 15.9714L162.67 12.3714C162.67 12.3429 162.698 12.3429 162.727 12.3429L172.156 15.6286ZM189.474 16C189.503 16.0286 189.531 16.0571 189.503 16.0857L187.788 22.6571C187.788 22.6857 187.76 22.7143 187.731 22.7143L182.76 24.4571L186.103 30.9714C186.103 31 186.103 31.0286 186.074 31.0571C186.074 31.0857 186.045 31.0857 186.017 31.0857H181.588C181.56 31.0857 181.531 31.0857 181.531 31.0571L177.96 26.1429L177.103 26.4286L175.903 31.0286C175.903 31.0571 175.874 31.0857 175.845 31.0857L173.731 31.8286L172.074 34.5429L172.045 34.5714L170.417 35.1429H170.388C170.36 35.1429 170.36 35.1429 170.331 35.1143C170.331 35.1143 170.303 35.0857 170.331 35.0571L171.588 30.2L172.131 28.1429L174.874 27.4L176.131 22.9143C176.445 22.8857 176.731 22.6286 176.731 22.2857H176.703L184.817 19.4571L184.988 18.6857L181.074 17.3143L179.503 17.3429L178.503 21.1714L176.56 21.8857C176.445 21.7429 176.274 21.6571 176.074 21.6571C175.731 21.6571 175.445 21.9429 175.445 22.2857C175.445 22.4857 175.56 22.6857 175.703 22.8L174.531 27.0571L172.274 27.6857L175.988 13.4857C175.988 13.4571 176.017 13.4286 176.045 13.4286H176.074H182.103C182.103 13.4286 182.103 13.4286 182.131 13.4286L189.474 16ZM202.232 26.1143C202.26 26.1143 202.26 26.1429 202.289 26.1429C202.317 26.1714 202.317 26.2 202.317 26.2286L201.032 31.0286C201.032 31.0571 201.003 31.0857 200.974 31.0857H188.632C188.603 31.0857 188.603 31.0857 188.574 31.0571C188.574 31.0286 188.546 31.0286 188.574 31L190.517 23.5429H192.317C192.403 23.7714 192.632 23.9714 192.917 23.9714C193.26 23.9714 193.546 23.6857 193.546 23.3143C193.546 23.1143 193.432 22.9143 193.289 22.8L194.232 19.2857L196.232 19.0857L194.117 27.1143L202.232 26.1143ZM205.889 12.5143C205.917 12.5429 205.917 12.5714 205.917 12.6L204.574 17.7429C204.546 17.7714 204.517 17.7714 204.489 17.8L193.889 18.8857L192.86 22.6857C192.603 22.7143 192.403 22.8857 192.317 23.1143H190.632L192.66 15.4286C192.66 15.4 192.66 15.4 192.689 15.4C192.689 15.3714 192.689 15.3714 192.717 15.3714L205.832 12.4857C205.86 12.4857 205.889 12.5143 205.889 12.5143ZM207.895 24L207.437 25.7714L205.266 26.1429L208.237 14.8L208.866 12.4286C208.866 12.4 208.895 12.3714 208.895 12.3714C208.923 12.3714 208.952 12.3714 208.952 12.3714L212.98 13.7714C213.009 13.7714 213.037 13.8286 213.037 13.8571L210.78 22.3143L208.695 23.0286C208.58 22.9143 208.437 22.8286 208.237 22.8286C207.895 22.8286 207.609 23.1143 207.609 23.4571C207.609 23.6857 207.723 23.8857 207.895 24ZM217.066 24.3714L218.037 21.1143H219.923L217.295 31.0286C217.295 31.0571 217.266 31.0857 217.237 31.0857H212.866C212.837 31.0857 212.809 31.0857 212.809 31.0571C212.78 31.0286 212.78 31.0286 212.809 31L214.38 24.9429L217.066 24.3714ZM221.923 13.4571C221.923 13.4571 221.952 13.4857 221.923 13.5143L220.037 20.6857H217.723L216.723 24.0286L209.98 25.4286L208.495 31.0286C208.495 31.0571 208.466 31.0857 208.437 31.0857L206.323 31.8286L204.666 34.5429L204.637 34.5714L203.009 35.1429H202.98C202.952 35.1429 202.952 35.1429 202.923 35.1143C202.923 35.1143 202.895 35.0857 202.923 35.0571L205.152 26.6L207.78 26.1429L208.323 24.0857C208.637 24.0571 208.866 23.8 208.866 23.4571C208.866 23.4571 208.866 23.4571 208.866 23.4286L215.38 21.1714L217.409 13.4857C217.409 13.4286 217.437 13.4286 217.466 13.4286H221.866C221.895 13.4286 221.923 13.4286 221.923 13.4571Z" fill="#12FF80"/>
<path d="M236.43 35.6774L236.43 6.32257C236.43 5.61975 235.881 5.04967 235.204 5.04967L233.315 5.04967C232.349 5.04967 231.564 4.23647 231.564 3.23185L231.564 1.2729C231.564 0.570076 231.015 -4.73472e-07 230.338 -5.32656e-07L226.657 -8.54461e-07C225.98 -9.13645e-07 225.431 0.570075 225.431 1.27289L225.431 4.00173C225.431 4.70455 225.98 5.27463 226.657 5.27463L229.598 5.27463C230.564 5.27463 231.349 6.08783 231.349 7.09245L231.349 34.9089C231.349 35.9122 230.566 36.7268 229.598 36.7268L226.659 36.7268C225.982 36.7268 225.432 37.2968 225.432 37.9997L225.432 40.7271C225.432 41.4299 225.982 42 226.659 42L230.34 42C231.017 42 231.566 41.4299 231.566 40.7271L231.566 38.7682C231.566 37.7649 232.349 36.9503 233.317 36.9503L235.205 36.9503C235.882 36.9503 236.431 36.3803 236.431 35.6774L236.43 35.6774Z" fill="#12FF80"/>
</svg>
